<svg version="1.2" xmlns="http://www.w3.org/2000/svg" viewBox="0 0 200 50" width="200" height="50">
	<title>Proyecto nuevo</title>
	<style>
		.s0 { fill: #ffffff } 
	</style>
	<path id="Cheskalala" class="s0" aria-label="Cheskalala"  d="m17.2 30.4q-5.6 0-8.7-2.9-3.1-2.8-3.1-9.2 0-12.1 11.8-12.1 2.8 0 5.3 0.7 2.4 0.7 3.6 1.6v7.5h-7.2v-2.2q0-1.1-0.5-1.7-0.5-0.5-1.5-0.5-1 0-1.6 0.5-0.5 0.6-0.5 1.7v9.1q0 1.1 0.5 1.6 0.6 0.6 1.6 0.6 1 0 1.5-0.6 0.5-0.5 0.5-1.6v-2.5h7.2v7.8q-1.2 0.8-3.6 1.5-2.4 0.7-5.3 0.7zm28.6-5.3h1.3v4.9h-9.5v-4.9h1.3v-4.9q0-1-0.4-1.5-0.4-0.5-1.3-0.5-1.8 0-1.8 2v4.9h1.3v4.9h-9.5v-4.9h1.3v-13.5h-1.3v-4.9h8.2v9q1.1-1.4 2.4-2.1 1.3-0.7 3-0.7 2.5 0 3.7 1.6 1.3 1.5 1.3 4.3zm11.2 5.3q-4.2 0-6.6-2.2-2.4-2.3-2.4-6.6 0-4.3 2.4-6.5 2.4-2.2 6.6-2.2 4.2 0 6.1 2.2 1.9 2.2 1.9 5.5v2.1h-9.7v0.2q0 1.1 0.6 1.6 0.7 0.6 2.2 0.6 1.9 0 3.5-0.3 1.7-0.3 2.9-0.7v4.8q-1.1 0.6-3.1 1-2 0.5-4.4 0.5zm-1.7-11h3.5v-0.3q0-1.1-0.5-1.5-0.4-0.5-1.3-0.5-0.9 0-1.3 0.5-0.4 0.5-0.4 1.5zm17.9 10.9q-3.8 0-7.3-1.2v-4.4h4.9v0.3q0 1.4 1.8 1.4 1.6 0 1.6-1.1 0-0.6-0.5-0.9-0.4-0.3-1.6-0.5l-1.5-0.3q-4.7-0.8-4.7-5.3 0-2.6 2-4 2-1.5 5.3-1.5 3.8 0 6.3 1.3v4.1h-4.5v-0.3q0-0.6-0.4-0.9-0.4-0.3-1.2-0.3-1.5 0-1.5 1 0 0.5 0.4 0.7 0.4 0.3 1.5 0.6l1.8 0.3q2.6 0.5 3.8 1.9 1.1 1.4 1.1 3.5 0 2.7-1.9 4.2-1.9 1.4-5.4 1.4zm23.5-9.3l2.9 4h1.3v4.9h-7.4l-3.1-5.7h-0.7v5.7h-8.2v-4.9h1.3v-13.5h-1.3v-4.9h8.2v12.2h0.7l3.7-5.6h6.4v5h-1.3zm21.3 3.9h1.4v5h-8v-2.1q-0.6 1-1.8 1.7-1.2 0.8-2.9 0.8-2.3 0-3.5-1.2-1.3-1.2-1.3-3.4 0-5.7 9.6-5.8-0.1-1-0.8-1.4-0.7-0.4-2.3-0.4-1.4 0-2.9 0.3-1.6 0.3-2.9 0.8v-5.6q1.6-0.4 3.5-0.6 1.9-0.2 3.6-0.2 4.5 0 6.4 1.6 1.9 1.6 1.9 5zm-6.6-1.9v-0.2q-1.3 0-2.1 0.4-0.7 0.3-0.7 1.2 0 0.5 0.3 0.8 0.3 0.3 0.9 0.3 0.8 0 1.2-0.7 0.4-0.6 0.4-1.8zm18.5 6.8h-9.6v-4.9h1.3v-13.5h-1.3v-4.9h8.2v18.4h1.4zm17.1-5h1.3v5h-7.9v-2.1q-0.7 1-1.9 1.7-1.1 0.8-2.9 0.8-2.2 0-3.5-1.2-1.3-1.2-1.3-3.4 0-5.7 9.6-5.8 0-1-0.7-1.4-0.7-0.4-2.4-0.4-1.3 0-2.9 0.3-1.5 0.3-2.8 0.8v-5.6q1.6-0.4 3.4-0.6 1.9-0.2 3.7-0.2 4.4 0 6.4 1.6 1.9 1.6 1.9 5zm-6.6-1.9v-0.2q-1.4 0-2.1 0.4-0.7 0.3-0.7 1.2 0 0.5 0.3 0.8 0.3 0.3 0.9 0.3 0.7 0 1.2-0.7 0.4-0.6 0.4-1.8zm18.4 6.8h-9.5v-4.9h1.3v-13.5h-1.3v-4.9h8.2v18.4h1.3zm17.1-5h1.4v5h-8v-2.1q-0.6 1-1.8 1.7-1.2 0.8-2.9 0.8-2.3 0-3.5-1.2-1.3-1.2-1.3-3.4 0-5.7 9.6-5.8-0.1-1-0.8-1.4-0.7-0.4-2.3-0.4-1.4 0-2.9 0.3-1.6 0.3-2.9 0.8v-5.6q1.6-0.4 3.5-0.6 1.9-0.2 3.6-0.2 4.5 0 6.4 1.6 1.9 1.6 1.9 5zm-6.6-1.9v-0.2q-1.3 0-2.1 0.4-0.7 0.3-0.7 1.2 0 0.5 0.3 0.8 0.3 0.3 0.9 0.3 0.8 0 1.2-0.7 0.4-0.6 0.4-1.8z"/>
</svg>